<svg width="331" height="95" viewBox="0 0 331 95" fill="none" xmlns="http://www.w3.org/2000/svg">
<rect x="14.6945" y="18" width="316.305" height="77" rx="10" fill="#F2F2FD"/>
<g filter="url(#filter0_d_1784_1952)">
<rect x="2" y="2" width="316.305" height="82" rx="10" fill="white"/>
<rect x="2.5" y="2.5" width="315.305" height="81" rx="9.5" stroke="#E8EBED"/>
</g>
<rect x="286.523" y="49" width="15.9146" height="15" rx="7.5" fill="#8A7FF9"/>
<path d="M291.454 60V59.1406L294.15 56.4229C294.999 55.5312 295.429 55.0371 295.429 54.3604C295.429 53.5977 294.806 53.1035 293.989 53.1035C293.13 53.1035 292.571 53.6514 292.571 54.4785H291.454C291.443 53.0605 292.528 52.1152 294.011 52.1152C295.515 52.1152 296.546 53.0605 296.557 54.3281C296.546 55.1982 296.138 55.8857 294.677 57.3252L293.098 58.9258V58.9902H296.686V60H291.454Z" fill="white"/>
<path d="M25.0784 51.8555V52.6621C25.0647 53.5371 25.0647 54.6445 24.7913 56.1074L23.5745 55.9844C23.8206 54.6855 23.8479 53.708 23.8479 52.9082H19.8967V51.8555H25.0784ZM22.467 54.6445V57.0918C23.5334 57.0508 24.6135 56.9824 25.5432 56.873L25.6116 57.8027C23.6155 58.1582 21.0315 58.2129 19.3772 58.2129L19.2542 57.1602C19.8284 57.1602 20.5188 57.1533 21.2639 57.1328V54.6445H22.467ZM29.8772 50.9258V60.1953H28.6194V55.8066H27.3206V59.8672H26.1038V51.1309H27.3206V54.7266H28.6194V50.9258H29.8772ZM30.1917 61.8496V62.9023H21.4006V59.2383H22.7268V61.8496H30.1917ZM41.1018 50.9121V53.6191H42.8792V54.6992H41.1018V57.2148H39.803V50.9121H41.1018ZM33.9788 58.3086V61.8223C34.6965 61.7949 35.5237 61.6992 36.303 61.4395L36.4944 62.4648C35.3596 62.834 34.2522 62.9023 33.3362 62.9023H32.7073V58.3086H33.9788ZM42.2502 58.4863V59.4434H36.0706V58.4863H38.5452V57.4609H39.8167V58.4863H42.2502ZM39.1604 59.8398C40.5002 59.8398 41.4709 60.4961 41.4709 61.5078C41.4709 62.5059 40.5002 63.1484 39.1604 63.1621C37.8069 63.1484 36.8362 62.5059 36.8499 61.5078C36.8362 60.4961 37.8069 59.8398 39.1604 59.8398ZM39.1604 60.7285C38.5042 60.7285 38.012 61.0293 38.012 61.5078C38.012 61.9727 38.5042 62.2598 39.1604 62.2598C39.803 62.2598 40.2952 61.9727 40.2952 61.5078C40.2952 61.0293 39.803 60.7285 39.1604 60.7285ZM35.7698 53.291C35.7698 54.5078 36.9456 55.6152 38.7776 56.0391L38.2307 57.0371C36.802 56.7021 35.7288 55.9502 35.1682 54.959C34.6282 56.1279 33.5139 57.0029 31.9963 57.3926L31.4221 56.3672C33.3088 55.916 34.4846 54.6992 34.4846 53.291V53.1543H31.8186V52.1152H34.4846V50.8711H35.7834V52.1152H38.4358V53.1543H35.7698V53.291ZM49.1545 51.6504C51.7249 51.6504 53.6799 53.0039 53.6799 55.0684C53.6799 57.1328 51.7249 58.5 49.1545 58.4863C46.5842 58.5 44.6428 57.1328 44.6428 55.0684C44.6428 53.0039 46.5842 51.6504 49.1545 51.6504ZM49.1545 52.7031C47.2815 52.6895 45.8733 53.6465 45.887 55.0684C45.8733 56.5039 47.2815 57.4199 49.1545 57.4199C51.0276 57.4199 52.4221 56.5039 52.4221 55.0684C52.4221 53.6465 51.0276 52.6895 49.1545 52.7031ZM54.7874 60.4961V61.5762H43.5764V60.4961H54.7874ZM60.1741 54.0293C60.1604 56.2715 61.5139 58.5137 63.4143 59.3613L62.635 60.3867C61.2268 59.7168 60.1125 58.3428 59.5452 56.668C58.9709 58.459 57.843 59.9424 56.3733 60.6602L55.5803 59.5664C57.5081 58.7051 58.8616 56.3672 58.8616 54.0293V51.9375H60.1741V54.0293ZM65.8206 50.9121V63.1895H64.5217V50.9121H65.8206ZM74.0237 51.9512V52.9902H76.6897V50.9258H77.9885V59.8535H76.6897V56.6816H74.0237V57.748H68.3362V51.9512H74.0237ZM69.6213 53.0039V56.7227H72.7522V53.0039H69.6213ZM78.262 61.8496V62.9023H69.9905V59.0332H71.303V61.8496H78.262ZM74.0237 55.6152H76.6897V54.0566H74.0237V55.6152ZM93.4377 50.9121V63.1895H92.1389V50.9121H93.4377ZM86.8889 51.8281C88.7073 51.8281 90.0471 53.4961 90.0471 56.1211C90.0471 58.7598 88.7073 60.4277 86.8889 60.4277C85.0432 60.4277 83.717 58.7598 83.717 56.1211C83.717 53.4961 85.0432 51.8281 86.8889 51.8281ZM86.8889 52.9902C85.7542 52.9902 84.9749 54.1934 84.9749 56.1211C84.9749 58.0625 85.7542 59.2656 86.8889 59.2656C88.01 59.2656 88.7893 58.0625 88.7893 56.1211C88.7893 54.1934 88.01 52.9902 86.8889 52.9902ZM105.606 50.9258V59.9766H104.307V55.3555H101.627V57.9395H95.9807V51.7324H97.2795V53.8105H100.342V51.7324H101.627V54.3027H104.307V50.9258H105.606ZM105.879 61.8496V62.9023H97.6077V59.0879H98.9202V61.8496H105.879ZM97.2795 56.8867H100.342V54.8086H97.2795V56.8867ZM118.225 52.1562V53.1953H110.924V52.1562H113.932V50.8574H115.231V52.1562H118.225ZM114.574 53.7422C116.338 53.7559 117.541 54.6309 117.541 55.9707C117.541 57.3105 116.338 58.1992 114.574 58.1992C112.797 58.1992 111.594 57.3105 111.594 55.9707C111.594 54.6309 112.797 53.7559 114.574 53.7422ZM114.574 54.7402C113.535 54.7402 112.838 55.2188 112.852 55.9707C112.838 56.7363 113.535 57.1875 114.574 57.1875C115.614 57.1875 116.311 56.7363 116.324 55.9707C116.311 55.2188 115.614 54.7402 114.574 54.7402ZM120.535 50.9121V54.2344H122.313V55.3145H120.535V58.5684H119.237V50.9121H120.535ZM120.535 59.1973V63.1621H119.237V60.25H112.442V59.1973H120.535ZM133.196 50.9121V63.1621H131.883V50.9121H133.196ZM129.545 52.2246C129.545 55.8066 128.014 58.9238 123.817 60.9336L123.133 59.8809C126.394 58.3291 127.98 56.1211 128.233 53.2637H123.721V52.2246H129.545ZM149.725 57.1055V58.1445H144.762V59.2793H148.33V63.0117H140.004V59.2793H143.477V58.1445H138.514V57.1055H149.725ZM141.289 60.3047V61.959H147.045V60.3047H141.289ZM148.317 51.1855V54.1797H141.235V55.2188H148.563V56.2578H139.949V53.2363H147.018V52.1836H139.922V51.1855H148.317ZM155.795 52.293V55.4785H157.436V51.1445H158.68V62.5605H157.436V56.5449H155.795V59.9355H151.037V52.293H155.795ZM152.268 53.3184V58.8965H154.578V53.3184H152.268ZM161.168 50.9121V63.1621H159.924V50.9121H161.168ZM172.201 52.9355V53.9883H166.117V52.9355H168.524V51.2676H169.809V52.9355H172.201ZM169.166 54.7266C170.725 54.7266 171.819 55.8887 171.832 57.543C171.819 59.2109 170.725 60.3867 169.166 60.3867C167.635 60.3867 166.5 59.2109 166.514 57.543C166.5 55.8887 167.635 54.7266 169.166 54.7266ZM169.166 55.8066C168.278 55.8066 167.662 56.5312 167.662 57.543C167.662 58.582 168.278 59.2793 169.166 59.2793C170.041 59.2793 170.684 58.582 170.684 57.543C170.684 56.5312 170.041 55.8066 169.166 55.8066ZM176.631 50.9121V63.1621H175.401V57.0781H173.992V62.5879H172.762V51.1855H173.992V56.0117H175.401V50.9121H176.631ZM189.455 60.5508V61.6309H178.244V60.5508H180.924V57.3516C179.919 56.7979 179.311 55.916 179.311 54.8223C179.311 52.8945 181.198 51.623 183.823 51.623C186.461 51.623 188.348 52.8945 188.348 54.8223C188.348 55.9023 187.76 56.7705 186.776 57.3242V60.5508H189.455ZM183.823 52.6621C181.895 52.6621 180.569 53.4961 180.569 54.8223C180.569 56.1348 181.895 56.9961 183.823 56.9961C185.737 56.9961 187.09 56.1348 187.09 54.8223C187.09 53.4961 185.737 52.6621 183.823 52.6621ZM182.209 60.5508H185.463V57.8164C184.964 57.9463 184.41 58.0078 183.823 58.0078C183.248 58.0078 182.701 57.9463 182.209 57.8301V60.5508ZM192.6 52.1016L192.477 59.1426H191.123L191 52.1016H192.6ZM191.807 62.0957C191.274 62.0957 190.823 61.6582 190.836 61.125C190.823 60.5918 191.274 60.1543 191.807 60.1543C192.326 60.1543 192.778 60.5918 192.778 61.125C192.778 61.6582 192.326 62.0957 191.807 62.0957Z" fill="#72787F"/>
<path d="M270.297 31V30.0625L273.239 27.0977C274.164 26.125 274.633 25.5859 274.633 24.8477C274.633 24.0156 273.953 23.4766 273.063 23.4766C272.125 23.4766 271.516 24.0742 271.516 24.9766H270.297C270.286 23.4297 271.469 22.3984 273.086 22.3984C274.727 22.3984 275.852 23.4297 275.864 24.8125C275.852 25.7617 275.407 26.5117 273.813 28.082L272.09 29.8281V29.8984H276.004V31H270.297ZM280.657 22.5156V31H279.356V23.8047H279.309L277.282 25.1289V23.8984L279.391 22.5156H280.657ZM283.645 29.9102C283.188 29.9102 282.801 29.5352 282.813 29.0781C282.801 28.6211 283.188 28.2461 283.645 28.2461C284.09 28.2461 284.477 28.6211 284.477 29.0781C284.477 29.5352 284.09 29.9102 283.645 29.9102ZM283.645 25.2812C283.188 25.2812 282.801 24.9062 282.813 24.4492C282.801 23.9922 283.188 23.6172 283.645 23.6172C284.09 23.6172 284.477 23.9922 284.477 24.4492C284.477 24.9062 284.09 25.2812 283.645 25.2812ZM288.93 31.1172C286.961 31.1172 285.813 29.5352 285.813 26.7578C285.813 24.0039 286.985 22.3984 288.93 22.3984C290.875 22.3984 292.047 24.0039 292.047 26.7578C292.047 29.5352 290.887 31.1172 288.93 31.1172ZM288.93 30.0039C290.078 30.0039 290.758 28.8789 290.758 26.7578C290.758 24.6484 290.067 23.4883 288.93 23.4883C287.793 23.4883 287.102 24.6484 287.102 26.7578C287.102 28.8789 287.782 30.0039 288.93 30.0039ZM296.266 31.1172C294.661 31.1172 293.453 30.1328 293.395 28.7852H294.649C294.719 29.5117 295.411 30.0391 296.266 30.0391C297.297 30.0391 298.036 29.2891 298.036 28.2812C298.036 27.25 297.274 26.5 296.207 26.4883C295.528 26.4883 295.012 26.7109 294.719 27.2383H293.5L294.051 22.5156H298.856V23.6172H295.118L294.836 25.9961H294.918C295.27 25.6562 295.868 25.4219 296.512 25.4219C298.106 25.4219 299.289 26.6055 299.289 28.2461C299.289 29.9219 298.036 31.1172 296.266 31.1172Z" fill="#72787F"/>
<path d="M23.8895 22.8818C25.9843 22.8818 27.5223 24.2002 27.537 26.0752C27.5223 27.7085 26.3724 28.9023 24.7098 29.1953V31.1289C25.889 31.0703 27.0829 30.9678 28.2108 30.8066L28.3427 31.9785C25.369 32.5352 22.1903 32.5645 19.8612 32.5645L19.6561 31.2314C20.6669 31.2314 21.8461 31.2314 23.0839 31.1875V29.1953C21.4213 28.9097 20.2567 27.7085 20.2567 26.0752C20.2567 24.2002 21.8094 22.8818 23.8895 22.8818ZM23.8895 24.2881C22.7323 24.2881 21.868 24.9619 21.868 26.0752C21.868 27.1738 22.7323 27.877 23.8895 27.877C25.0614 27.877 25.9403 27.1738 25.9403 26.0752C25.9403 24.9619 25.0614 24.2881 23.8895 24.2881ZM30.6278 22.0615V35.3184H29.0018V22.0615H30.6278ZM43.9286 22.0615V35.3037H42.3612V28.5068H40.9403V34.6885H39.4169V22.4131H40.9403V27.1885H42.3612V22.0615H43.9286ZM38.2889 23.7314C38.2889 27.3057 37.161 30.3818 33.3964 32.5352L32.4589 31.4072C35.2787 29.7739 36.4725 27.6792 36.7069 25.0352H33.0741V23.7314H38.2889ZM56.5555 22.0762V31.6416H54.9149V22.0762H56.5555ZM56.9218 33.7217V35.04H47.7958V30.6748H49.4364V33.7217H56.9218ZM49.3339 22.9404C51.3407 22.9404 52.8934 24.332 52.8934 26.251C52.8934 28.2139 51.3407 29.5762 49.3339 29.5762C47.3124 29.5762 45.7596 28.2139 45.7596 26.251C45.7596 24.332 47.3124 22.9404 49.3339 22.9404ZM49.3339 24.3613C48.2059 24.3613 47.3417 25.1084 47.3563 26.251C47.3417 27.4229 48.2059 28.1553 49.3339 28.1553C50.4325 28.1553 51.2968 27.4229 51.2968 26.251C51.2968 25.1084 50.4325 24.3613 49.3339 24.3613Z" fill="#111111"/>
<defs>
<filter id="filter0_d_1784_1952" x="0" y="0" width="324.305" height="90" filterUnits="userSpaceOnUse" color-interpolation-filters="sRGB">
<feFlood flood-opacity="0" result="BackgroundImageFix"/>
<feColorMatrix in="SourceAlpha" type="matrix" values="0 0 0 0 0 0 0 0 0 0 0 0 0 0 0 0 0 0 127 0" result="hardAlpha"/>
<feOffset dx="2" dy="2"/>
<feGaussianBlur stdDeviation="2"/>
<feComposite in2="hardAlpha" operator="out"/>
<feColorMatrix type="matrix" values="0 0 0 0 0 0 0 0 0 0 0 0 0 0 0 0 0 0 0.1 0"/>
<feBlend mode="normal" in2="BackgroundImageFix" result="effect1_dropShadow_1784_1952"/>
<feBlend mode="normal" in="SourceGraphic" in2="effect1_dropShadow_1784_1952" result="shape"/>
</filter>
</defs>
</svg>
