<svg width="30" height="30" viewBox="0 0 30 30" fill="none" xmlns="http://www.w3.org/2000/svg">
<circle cx="15" cy="15" r="15" fill="#8A7FF9"/>
<path d="M24.5146 8.69995L7.12086 8.74053C5.92927 8.74331 5.38542 10.228 6.29325 10.9998L11.7489 15.6381C12.0214 15.8698 12.1848 16.2047 12.1996 16.5621L12.4958 23.7168C12.545 24.9074 14.0498 25.3929 14.7856 24.4556L25.5263 10.7741C26.1877 9.93157 25.5858 8.69746 24.5146 8.69995Z" fill="white"/>
<path d="M7.12086 8.74053L7.12203 9.24053L7.12203 9.24053L7.12086 8.74053ZM24.5146 8.69995L24.5135 8.19996L24.5135 8.19996L24.5146 8.69995ZM25.5263 10.7741L25.9195 11.0829L25.9195 11.0829L25.5263 10.7741ZM14.7856 24.4556L14.3923 24.1469L14.7856 24.4556ZM12.4958 23.7168L12.9953 23.6961L12.9953 23.6961L12.4958 23.7168ZM12.1996 16.5621L11.7 16.5827L11.7 16.5827L12.1996 16.5621ZM11.7489 15.6381L12.0728 15.2572L12.0728 15.2572L11.7489 15.6381ZM6.29325 10.9998L5.96939 11.3807L5.96939 11.3807L6.29325 10.9998ZM12.1772 15.3511C11.9358 15.4852 11.8488 15.7896 11.9829 16.031C12.1171 16.2724 12.4215 16.3594 12.6628 16.2253L12.1772 15.3511ZM7.12203 9.24053L24.5158 9.19995L24.5135 8.19996L7.11969 8.24053L7.12203 9.24053ZM25.133 10.4654L14.3923 24.1469L15.1789 24.7643L25.9195 11.0829L25.133 10.4654ZM12.9953 23.6961L12.6991 16.5414L11.7 16.5827L11.9962 23.7375L12.9953 23.6961ZM12.0728 15.2572L6.61712 10.6189L5.96939 11.3807L11.4251 16.0191L12.0728 15.2572ZM12.6991 16.5414C12.6786 16.0447 12.4515 15.5792 12.0728 15.2572L11.4251 16.0191C11.5913 16.1604 11.691 16.3647 11.7 16.5827L12.6991 16.5414ZM14.3923 24.1469C13.9434 24.7187 13.0254 24.4225 12.9953 23.6961L11.9962 23.7375C12.0647 25.3923 14.1562 26.0671 15.1789 24.7643L14.3923 24.1469ZM24.5158 9.19995C25.1693 9.19843 25.5365 9.95134 25.133 10.4654L25.9195 11.0829C26.8389 9.91179 26.0023 8.19648 24.5135 8.19996L24.5158 9.19995ZM7.11969 8.24053C5.46349 8.24439 4.70757 10.308 5.96939 11.3807L6.61712 10.6189C6.06326 10.148 6.39506 9.24222 7.12203 9.24053L7.11969 8.24053ZM16.4399 12.9829L12.1772 15.3511L12.6628 16.2253L16.9256 13.8571L16.4399 12.9829Z" fill="#8A7FF9"/>
</svg>
